#tb 0: 1/30
#tb 1: 1/44100
0,          0,          0,        1,   153600, 0xdf5e91ab
1,          0,          0,     1024,     4096, 0x00000000
1,       1024,       1024,      446,     1784, 0x00000000
0,          1,          1,        1,   153600, 0xdf5e91ab
1,       1470,       1470,     1024,     4096, 0x00000000
1,       2494,       2494,      446,     1784, 0x00000000
0,          2,          2,        1,   153600, 0xdf5e91ab
1,       2940,       2940,     1024,     4096, 0x00000000
1,       3964,       3964,      446,     1784, 0x00000000
0,          3,          3,        1,   153600, 0xdf5e91ab
1,       4410,       4410,     1024,     4096, 0x00000000
1,       5434,       5434,      446,     1784, 0x00000000
0,          4,          4,        1,   153600, 0xdf5e91ab
1,       5880,       5880,     1024,     4096, 0x00000000
1,       6904,       6904,      446,     1784, 0x00000000
0,          5,          5,        1,   153600, 0xdf5e91ab
1,       7350,       7350,     1024,     4096, 0x00000000
1,       8374,       8374,      446,     1784, 0x00000000
0,          6,          6,        1,   153600, 0xdf5e91ab
1,       8820,       8820,     1024,     4096, 0x00000000
1,       9844,       9844,      446,     1784, 0x00000000
0,          7,          7,        1,   153600, 0xdf5e91ab
1,      10290,      10290,     1024,     4096, 0x00000000
1,      11314,      11314,      446,     1784, 0x00000000
0,          8,          8,        1,   153600, 0xdf5e91ab
1,      11760,      11760,     1024,     4096, 0x00000000
1,      12784,      12784,      446,     1784, 0x00000000
0,          9,          9,        1,   153600, 0xdf5e91ab
1,      13230,      13230,     1024,     4096, 0x00000000
1,      14254,      14254,      446,     1784, 0x00000000
0,         10,         10,        1,   153600, 0xdf5e91ab
1,      14700,      14700,     1024,     4096, 0x00000000
1,      15724,      15724,      446,     1784, 0x00000000
0,         11,         11,        1,   153600, 0xdf5e91ab
1,      16170,      16170,     1024,     4096, 0x00000000
1,      17194,      17194,      446,     1784, 0x00000000
0,         12,         12,        1,   153600, 0xdf5e91ab
1,      17640,      17640,     1024,     4096, 0x00000000
1,      18664,      18664,      446,     1784, 0x00000000
0,         13,         13,        1,   153600, 0xdf5e91ab
1,      19110,      19110,     1024,     4096, 0x00000000
1,      20134,      20134,      446,     1784, 0x00000000
0,         14,         14,        1,   153600, 0xdf5e91ab
1,      20580,      20580,     1024,     4096, 0x00000000
1,      21604,      21604,      446,     1784, 0x00000000
0,         15,         15,        1,   153600, 0xdf5e91ab
1,      22050,      22050,     1024,     4096, 0x00000000
1,      23074,      23074,      446,     1784, 0x00000000
0,         16,         16,        1,   153600, 0xdf5e91ab
1,      23520,      23520,     1024,     4096, 0x00000000
1,      24544,      24544,      446,     1784, 0x00000000
0,         17,         17,        1,   153600, 0xdf5e91ab
1,      24990,      24990,     1024,     4096, 0x00000000
1,      26014,      26014,      446,     1784, 0x00000000
0,         18,         18,        1,   153600, 0xdf5e91ab
1,      26460,      26460,     1024,     4096, 0x00000000
1,      27484,      27484,      446,     1784, 0x00000000
0,         19,         19,        1,   153600, 0xdf5e91ab
1,      27930,      27930,     1024,     4096, 0x00000000
1,      28954,      28954,      446,     1784, 0x00000000
0,         20,         20,        1,   153600, 0xdf5e91ab
1,      29400,      29400,     1024,     4096, 0x00000000
1,      30424,      30424,      446,     1784, 0x00000000
0,         21,         21,        1,   153600, 0xdf5e91ab
1,      30870,      30870,     1024,     4096, 0x00000000
1,      31894,      31894,      446,     1784, 0x00000000
0,         22,         22,        1,   153600, 0xdf5e91ab
1,      32340,      32340,     1024,     4096, 0x00000000
1,      33364,      33364,      446,     1784, 0x00000000
0,         23,         23,        1,   153600, 0xdf5e91ab
1,      33810,      33810,     1024,     4096, 0x00000000
1,      34834,      34834,      446,     1784, 0x00000000
0,         24,         24,        1,   153600, 0xdf5e91ab
1,      35280,      35280,     1024,     4096, 0x00000000
1,      36304,      36304,      446,     1784, 0x00000000
0,         25,         25,        1,   153600, 0xdf5e91ab
1,      36750,      36750,     1024,     4096, 0x00000000
1,      37774,      37774,      446,     1784, 0x00000000
0,         26,         26,        1,   153600, 0xdf5e91ab
1,      38220,      38220,     1024,     4096, 0x00000000
1,      39244,      39244,      446,     1784, 0x00000000
0,         27,         27,        1,   153600, 0xdf5e91ab
1,      39690,      39690,     1024,     4096, 0x00000000
1,      40714,      40714,      446,     1784, 0x00000000
0,         28,         28,        1,   153600, 0xdf5e91ab
1,      41160,      41160,     1024,     4096, 0x00000000
1,      42184,      42184,      446,     1784, 0x00000000
0,         29,         29,        1,   153600, 0xdf5e91ab
1,      42630,      42630,     1024,     4096, 0x00000000
1,      43654,      43654,      446,     1784, 0x00000000
